{
  "title": "18+ When The Bough Breaks 2016 Movies HDCam XviD AAC New ~ â˜»rDXâ˜»",
  "uid": 15890780,
  "size": 739658826,
  "categoryP": "video",
  "categoryS": "movies",
  "magnet": "?xt=urn:btih:17262a555ea721aec1535d61a0e1cb963aa3fe38&amp;dn=18%2B+When+The+Bough+Breaks+2016+Movies+HDCam+XviD+AAC+New+%7E+%E2%98%BBrDX%E2%98%BB&amp;tr=udp%3A%2F%2Ftracker.leechers-paradise.org%3A6969&amp;tr=udp%3A%2F%2Fzer0day.ch%3A1337&amp;tr=udp%3A%2F%2Fopen.demonii.com%3A1337&amp;tr=udp%3A%2F%2Ftracker.coppersurfer.tk%3A6969&amp;tr=udp%3A%2F%2Fexodus.desync.com%3A6969",
  "seeders": 64,
  "leechers": 27,
  "uploader": "basicssom",
  "files": 2,
  "time": 1474739113,
  "description": "----------------------------------------------------------------\r\n18+ When The Bough Breaks 2016 English Movies HDCam XviD AAC New Source with Sample â˜»rDXâ˜»\r\n\r\nSCREEN SHOTS &amp; POSTER:\r\n  \nhttp://postimage.co.nr/2016/10/home/index.htm  \nhttp://postimage.co.nr/2016/10/home/1.html  \nhttp://postimage.co.nr/2016/10/home/2.html  \nhttp://postimage.co.nr/2016/10/home/3.html  \nhttp://postimage.co.nr/2016/10/home/4.html  \nhttp://postimage.co.nr/2016/10/home/5.html  \nhttp://postimage.co.nr/2016/10/home/6.html  \nhttp://postimage.co.nr/2016/10/home/7.html  \nhttp://postimage.co.nr/2016/10/home/8.html  \nhttp://postimage.co.nr/2016/10/home/9.html  \nhttp://postimage.co.nr/2016/10/home/10.html\r\n\r\nFormat                                   : Matroska\r\nFormat version                           : Version 4 / Version 2\r\nFile size                                : 697 MiB\r\nDuration                                 : 1 h 43 min\r\nOverall bit rate mode                    : Constant\r\nOverall bit rate                         : 946 kb/s\r\nMovie name                               : 18+ When The Bough Breaks 2016 English Movies HDCam XviD AAC New Source â˜»rDXâ˜»\r\n\r\nVideo\r\nID                                       : 2\r\nFormat                                   : AVC\r\nFormat/Info                              : Advanced Video Codec\r\nFormat profile                           :   \r\nFormat settings, CABAC                   : Yes\r\nFormat settings, ReFrames                : 2 frames\r\nFormat settings, GOP                     : M=1, N=12\r\nCodec ID                                 : V_MPEG4/ISO/AVC\r\nDuration                                 : 1 h 43 min\r\nBit rate mode                            : Constant\r\nBit rate                                 : 755 kb/s\r\nWidth                                    : 720 pixels\r\nHeight                                   : 336 pixels\r\nDisplay aspect ratio                     : 2.143\r\nFrame rate mode                          : Constant\r\nFrame rate                               : 29.970 (29970/1000) FPS\r\nColor space                              : YUV\r\nChroma subsampling                       : 4:2:0\r\nBit depth                                : 8 bits\r\nScan type                                : Progressive\r\nBits/(Pixel*Frame)                       : 0.104\r\nStream size                              : 542 MiB (78%)\r\nTitle                                    : â˜»rDXâ˜»\r\nDefault                                  : Yes\r\nForced                                   : No\r\n\r\nAudio\r\nID                                       : 1\r\nFormat                                   : AC-3\r\nFormat/Info                              : Audio Coding 3\r\nMode extension                           : CM (complete main)\r\nFormat settings, Endianness              : Big\r\nCodec ID                                 : A_AC3\r\nDuration                                 : 1 h 43 min\r\nBit rate mode                            : Constant\r\nBit rate                                 : 192 kb/s\r\nChannel(s)                               : 2 channels\r\nChannel positions                        : Front: L R\r\nSampling rate                            : 48.0 kHz\r\nFrame rate                               : 31.250 FPS (1536 spf)\r\nCompression mode                         : Lossy\r\nStream size                              : 142 MiB (20%)\r\nTitle                                    : â˜»rDXâ˜»\r\nDefault                                  : Yes\r\nForced                                   : No\r\n\r\nIMDB \nhttp://www.imdb.com/title/tt1389139/",
  "parsed": {
    "xt": "urn:btih:17262a555ea721aec1535d61a0e1cb963aa3fe38",
    "dn": "18  When The Bough Breaks 2016 Movies HDCam XviD AAC New ~ ☻rDX☻",
    "tr": [
      "udp://exodus.desync.com:6969",
      "udp://open.demonii.com:1337",
      "udp://tracker.coppersurfer.tk:6969",
      "udp://tracker.leechers-paradise.org:6969",
      "udp://zer0day.ch:1337"
    ],
    "infoHash": "17262a555ea721aec1535d61a0e1cb963aa3fe38",
    "infoHashBuffer": {
      "type": "Buffer",
      "data": [
        23,
        38,
        42,
        85,
        94,
        167,
        33,
        174,
        193,
        83,
        93,
        97,
        160,
        225,
        203,
        150,
        58,
        163,
        254,
        56
      ]
    },
    "name": "18  When The Bough Breaks 2016 Movies HDCam XviD AAC New ~ ☻rDX☻",
    "announce": [
      "udp://exodus.desync.com:6969",
      "udp://open.demonii.com:1337",
      "udp://tracker.coppersurfer.tk:6969",
      "udp://tracker.leechers-paradise.org:6969",
      "udp://zer0day.ch:1337"
    ],
    "urlList": []
  },
  "previous": 91,
  "peers": 36,
  "last_updated": "2016-12-24T18:13:34.729Z"
}